<svg viewBox="0 0 145 145" fill="none" xmlns="http://www.w3.org/2000/svg">
<g clip-path="url(#clip0_5071_12)">
<path d="M108.011 106.131C105.564 106.136 103.139 105.657 100.877 104.72C98.6159 103.784 96.5621 102.409 94.8345 100.675L75.8033 81.6439C75.1296 81.0038 74.2358 80.647 73.3066 80.647C72.3773 80.647 71.4835 81.0038 70.8098 81.6439L51.7061 100.748C49.9792 102.483 47.9255 103.858 45.6637 104.794C43.402 105.731 40.9771 106.21 38.5292 106.203H34.7773L58.8836 130.309C66.4055 137.831 78.6127 137.831 86.1345 130.309L110.304 106.131H108.011ZM38.5292 38.8145C43.5136 38.8145 48.1898 40.7538 51.7061 44.2701L70.8098 63.3739C71.1381 63.7027 71.528 63.9635 71.9572 64.1415C72.3864 64.3195 72.8465 64.4111 73.3111 64.4111C73.7757 64.4111 74.2358 64.3195 74.665 64.1415C75.0942 63.9635 75.4841 63.7027 75.8123 63.3739L94.8436 44.3426C96.5695 42.6088 98.6217 41.234 100.882 40.2976C103.142 39.3612 105.565 38.8818 108.011 38.887H110.304L86.1345 14.7173C82.52 11.1052 77.6191 9.07617 72.5091 9.07617C67.3991 9.07617 62.4982 11.1052 58.8836 14.7173L34.7773 38.8235L38.5292 38.8145Z" fill="currentColor"/>
<path d="M130.287 58.8655L115.678 44.2568C115.35 44.3915 115 44.4622 114.645 44.4652H108.002C104.568 44.4652 101.205 45.8609 98.7858 48.2896L79.7545 67.3209C78.9082 68.1717 77.902 68.8468 76.7939 69.3075C75.6858 69.7682 74.4976 70.0054 73.2975 70.0054C72.0974 70.0054 70.9092 69.7682 69.8011 69.3075C68.693 68.8468 67.6868 68.1717 66.8405 67.3209L47.7367 48.208C45.2858 45.7672 41.9702 44.3927 38.5111 44.3837H30.3548C30.0167 44.381 29.6819 44.3165 29.367 44.1934L14.7039 58.8655C7.18203 66.3874 7.18203 78.5946 14.7039 86.1255L29.367 100.789C29.6785 100.663 30.0101 100.596 30.3458 100.589H38.5111C41.9548 100.589 45.308 99.2027 47.7367 96.774L66.8314 77.6612C68.5737 76.0023 70.8873 75.0771 73.293 75.0771C75.6987 75.0771 78.0122 76.0023 79.7545 77.6612L98.7858 96.6924C101.205 99.1212 104.568 100.508 108.002 100.508H114.645C115.008 100.508 115.361 100.598 115.678 100.725L130.287 86.1165C137.809 78.5946 137.809 66.3874 130.287 58.8655Z" fill="currentColor"/>
</g>
<defs>
<clipPath id="clip0_5071_12">
<rect width="145" height="145" fill="currentColor"/>
</clipPath>
</defs>
</svg>
